<svg width="100" height="100" viewBox="0 0 100 100" fill="none" xmlns="http://www.w3.org/2000/svg">
<path d="M80 13.3333H20C16.3167 13.3333 13.3333 16.3166 13.3333 19.9999V79.9999C13.3333 83.6832 16.3167 86.6666 20 86.6666H80C83.6833 86.6666 86.6666 83.6832 86.6666 79.9999V19.9999C86.6666 16.3166 83.6833 13.3333 80 13.3333ZM36.5133 73.3332H26.68V41.6932H36.5133V73.3332ZM31.4967 37.1699C28.3267 37.1699 25.7633 34.5999 25.7633 31.4366C25.7633 28.2732 28.33 25.7066 31.4967 25.7066C34.6567 25.7066 37.2267 28.2766 37.2267 31.4366C37.2267 34.5999 34.6567 37.1699 31.4967 37.1699ZM73.3466 73.3332H63.52V57.9466C63.52 54.2766 63.4533 49.5566 58.41 49.5566C53.2933 49.5566 52.5067 53.5532 52.5067 57.6799V73.3332H42.68V41.6932H52.1133V46.0166H52.2467C53.56 43.5299 56.7667 40.9066 61.55 40.9066C71.5067 40.9066 73.3466 47.4599 73.3466 55.9799V73.3332Z" fill="#D65D4D"/>
</svg>
